<?xml version="1.0" encoding="utf-8"?>
<!-- Generator: Adobe Illustrator 27.3.1, SVG Export Plug-In . SVG Version: 6.00 Build 0)  -->
<svg version="1.1" id="Layer_1" xmlns="http://www.w3.org/2000/svg" xmlns:xlink="http://www.w3.org/1999/xlink" x="0px" y="0px"
	 viewBox="0 0 512 512" style="enable-background:new 0 0 512 512;" xml:space="preserve">
<style type="text/css">
	.st0{fill:#2B59FF;}
	.st1{fill:#F5F8FF;}
</style>
<path class="st0" d="M170,0h172c93.9,0,170,76.1,170,170v172c0,93.9-76.1,170-170,170H170C76.1,512,0,435.9,0,342V170
	C0,76.1,76.1,0,170,0z"/>
<g>
	<path class="st1" d="M263.2,364.9l-69.4-139.5c-0.1-0.2-0.4-0.3-0.7-0.2c-0.1,0.1-0.2,0.1-0.2,0.2l-56.4,113.2
		c-0.2,0.3,0,0.7,0.3,0.9c0.1,0,0.2,0.1,0.3,0.1h66.3c0.4,0,0.7,0.2,0.8,0.5l14.7,29.4l5.4,10.8c0.2,0.3,0,0.7-0.3,0.9
		c-0.1,0-0.2,0.1-0.3,0.1H69c-0.3,0-0.5-0.2-0.5-0.5c0-0.1,0-0.2,0.1-0.2l124.2-248.6c0.5-0.9,0.9-0.9,1.4,0l124.2,248.7
		c0.1,0.2,0,0.5-0.2,0.6c-0.1,0-0.1,0-0.2,0h-45.7c-0.5,0-0.9-0.3-1.1-0.7L263.2,364.9L263.2,364.9z"/>
	<path class="st1" d="M377.6,145.7c27.6,14.7,47.1,37.5,58.5,68.3c0.1,0.4,0,0.6-0.4,0.6h-44.3c-0.5,0-0.9-0.2-1.2-0.6
		c-26-41.9-79.3-54.9-120.5-25.7c-0.5,0.3-0.8,0.2-1-0.3l-18.2-36.4c-0.2-0.4-0.1-0.7,0.2-0.9C289.4,125.4,338.4,124.8,377.6,145.7
		L377.6,145.7z"/>
	<path class="st1" d="M389.8,297.8h-65.7c-0.4,0-0.8-0.2-1-0.6L302.9,257c-0.2-0.4-0.1-0.7,0.4-0.7c5.6-0.3,11.2-0.5,16.8-0.4
		c40.9,0.5,81.8-0.1,122.8,0.5c0.4,0,0.6,0.2,0.6,0.6c-0.5,52.5-32.8,97.4-81.7,116c-0.3,0.1-0.7,0-0.8-0.3l-18.3-36.5
		c-0.2-0.4-0.1-0.6,0.3-0.7c20.2-6.5,36-18.8,47.2-36.8c0.1-0.2,0.1-0.5-0.1-0.7C389.9,297.9,389.8,297.8,389.8,297.8L389.8,297.8z"
		/>
</g>
</svg>
