<?xml version="1.0" encoding="UTF-8"?>
<svg id="svg17" xmlns="http://www.w3.org/2000/svg" viewBox="0 0 485.01 198.41">
  <defs>
    <style>
      .cls-1, .cls-2, .cls-3, .cls-4, .cls-5 {
        isolation: isolate;
      }

      .cls-1, .cls-3, .cls-4, .cls-5 {
        font-family: Manrope-Bold, Manrope;
        font-size: 48.19px;
        font-weight: 700;
      }

      .cls-1, .cls-4 {
        fill: none;
        stroke: #1a2658;
        stroke-miterlimit: 10;
        stroke-width: .5px;
      }

      .cls-1, .cls-5 {
        letter-spacing: -.02em;
      }

      .cls-3, .cls-5 {
        fill: #1a2658;
      }

      .cls-6 {
        fill: #2b59ff;
      }
    </style>
  </defs>
  <g>
    <path class="cls-6" d="m325.05,48.79C249.82,14.9,174.21.22,94.54,28.07c2.13,4.31,6.97,3.75,10.28,6.63h-50.35c2.45-3.73,5.22-4.58,7.59-5.81C93.87,12.43,128.09,5.19,163.44,1.37c44.19-4.77,86.11,3.08,126.29,20.93,36.43,16.18,74.57,24.94,113.94,29.75,18.81,2.3,37.3,6.73,54.62,14.92,10.57,5,19.6,11.79,25.53,22.16,1.87,3.26,1.94,5.29-2.74,5.26-13.86-.09-27.72-.03-41.61-.03.06-.76-.06-1.31.15-1.48,2.43-2.04,6.47-3.04,5.91-7.17-.61-4.47-4.69-5.48-8.23-6.59-17.33-5.43-35.3-7.68-53.19-9.93-77.48-9.77-155.31-14.72-233.38-14.6-49.59.07-99.12,2.49-148.09,11.41-.83.15-1.71.02-2.59.02-.31-1.75.94-1.93,1.85-2.19,65.42-18.38,132.02-26.79,199.97-23.02,37.84,2.1,75.65,4.67,113.47,7.06,2.81.18,5.61.53,9.72.93h-.01Z"/>
    <path class="cls-6" d="m325.02,85.18c-21.56-.71-43.12-.67-64.66-1.08-37.01-.7-74-.8-110.79,4.33-5.47.76-9.12,2.76-11.39,8.17-2.27,5.39-5.69,10.33-11.79,14.52-.09-15.43-4.3-28.36-17.48-37.36,72.79-4.31,144.8-3.36,216.11,11.43h0Z"/>
    <path class="cls-6" d="m171.01,103.12c7.56-2.04,14.69-2.34,21.74-3.01,43.84-4.17,87.51-3.16,131,4.19,4.53.77,6.73,2.38,6.44,7.1-.27,4.45,1.3,8.55,3.9,13.21-5.28-.38-8.54-2.74-10.69-5.91-2.92-4.29-6.82-5.74-11.62-6.29-44.24-5.05-88.63-7.52-133.14-8-2.28-.02-4.74.81-7.63-1.29h0Z"/>
    <path class="cls-6" d="m343.93,110.7c-1.32-16.55,9.97-30.91,25.47-33.62,16.58-2.9,32.26,7.37,36.59,23.97,3.82,14.65-4.29,30.81-17.98,35.81,12.95-18.5,11.57-35.06-3.68-44-15.22-8.92-30.78-2.37-40.4,17.85h0Z"/>
    <path class="cls-6" d="m89.11,136.82c12.44-19.09,11.47-34-2.84-43.35s-28.97-3.85-41.08,15.41c-2.37-13.2,8.55-27.74,23.65-31.49,15.68-3.9,32.53,5.78,37.54,21.55,4.89,15.39-2.85,32.38-17.27,37.88Z"/>
  </g>
  <g class="cls-2">
    <text class="cls-5" transform="translate(66.48 183.46)"><tspan x="0" y="0">A</tspan></text>
    <text class="cls-1" transform="translate(66.48 183.46)"><tspan x="0" y="0">A</tspan></text>
    <text class="cls-3" transform="translate(98.43 183.46)"><tspan x="0" y="0">UTO GLIMPSE</tspan></text>
    <text class="cls-4" transform="translate(98.43 183.46)"><tspan x="0" y="0">UTO GLIMPSE</tspan></text>
  </g>
</svg>